<?xml version="1.0" standalone="no"?>
<!DOCTYPE svg PUBLIC "-//W3C//DTD SVG 20010904//EN"
 "http://www.w3.org/TR/2001/REC-SVG-20010904/DTD/svg10.dtd">
<svg version="1.0" xmlns="http://www.w3.org/2000/svg"
 width="128.000000pt" height="128.000000pt" viewBox="0 0 128.000000 128.000000"
 preserveAspectRatio="xMidYMid meet">

<g transform="translate(0.000000,128.000000) scale(0.100000,-0.100000)"
fill="#000000" stroke="none">
<path d="M415 1269 c-265 -12 -342 -33 -369 -100 -24 -60 -36 -235 -36 -534 0
-303 12 -473 38 -525 23 -47 87 -77 187 -90 102 -13 696 -13 796 -1 95 13 152
35 183 71 44 53 51 130 51 555 0 492 -8 539 -95 582 -76 38 -429 57 -755 42z
m75 -340 c0 -40 0 -41 23 -27 12 8 43 27 68 41 l45 27 192 -117 191 -117 -25
-40 c-14 -23 -29 -47 -33 -55 -8 -13 -13 -12 -35 2 l-26 17 0 -155 0 -155
-260 0 -260 0 0 156 0 155 -30 -17 c-16 -10 -31 -16 -33 -13 -2 2 -19 26 -37
53 -26 39 -30 50 -19 57 8 4 37 23 64 41 l50 33 3 78 3 77 59 0 60 0 0 -41z"/>
</g>
</svg>
